<svg aria-hidden="true" style="position:absolute;width:0;height:0" xmlns="http://www.w3.org/2000/svg" overflow="hidden">
<defs>
<symbol id="icon-envelope" viewBox="0 0 43 32">
<path d="M38.667 0H4C1.794 0 0 1.794 0 4v24c0 2.206 1.794 4 4 4h34.667c2.206 0 4-1.794 4-4V4c0-2.206-1.794-4-4-4zm0 2.667c.181 0 .353.038.511.103L21.334 18.236 3.49 2.77c.158-.066.33-.103.511-.103h34.667zm0 26.666H4c-.736 0-1.333-.598-1.333-1.333V5.587L20.46 21.008c.251.217.563.326.874.326s.622-.108.874-.326L40.001 5.587V28c0 .736-.598 1.333-1.333 1.333z"/>
</symbol> 
<symbol id="icon-facebook" viewBox="0 0 32 32">
<path d="M21.328 5.312h2.923V.224C23.019.081 21.591 0 20.143 0h-.156.008c-4.213 0-7.099 2.65-7.099 7.52V12H8.25v5.688h4.646V32h5.699V17.69h4.459l.707-5.688h-5.168V8.08c0-1.643.443-2.768 2.734-2.768z"/>
</symbol>
<symbol id="icon-instagram" viewBox="0 0 32 32">
<path d="M31.968 9.408c-.074-1.701-.349-2.869-.744-3.882-.423-1.111-1.052-2.058-1.847-2.837l-.001-.001c-.78-.792-1.724-1.419-2.778-1.827l-.054-.018C25.523.449 24.362.176 22.661.101 20.949.019 20.405 0 16.059 0c-4.344 0-4.888.019-6.595.094-1.701.074-2.869.349-3.88.742-1.112.424-2.06 1.054-2.839 1.85l-.001.001c-.791.78-1.418 1.724-1.825 2.778l-.018.054C.506 6.538.232 7.7.157 9.401c-.082 1.712-.101 2.256-.101 6.602 0 4.344.019 4.888.094 6.595.075 1.701.35 2.869.744 3.882.426 1.11 1.055 2.057 1.849 2.837l.001.001c.8.813 1.77 1.443 2.832 1.843 1.019.395 2.182.67 3.882.744 1.707.075 2.251.094 6.595.094 4.346 0 4.89-.019 6.595-.094 1.701-.074 2.869-.349 3.882-.742 2.157-.85 3.833-2.526 4.664-4.628l.019-.055c.394-1.019.669-2.182.744-3.882.075-1.707.093-2.251.093-6.595s-.006-4.888-.08-6.595zm-2.88 13.066c-.07 1.563-.333 2.406-.552 2.97-.551 1.399-1.638 2.486-3.001 3.024l-.036.013c-.563.219-1.413.482-2.97.55-1.688.075-2.194.094-6.464.094-4.269 0-4.782-.019-6.464-.094-1.563-.069-2.406-.331-2.97-.55-.721-.269-1.334-.676-1.836-1.192l-.001-.001c-.517-.503-.924-1.117-1.184-1.803l-.011-.034c-.218-.563-.48-1.413-.549-2.97-.075-1.688-.094-2.195-.094-6.464 0-4.27.019-4.784.094-6.464.069-1.563.331-2.406.549-2.97.269-.722.678-1.337 1.198-1.837l.002-.002c.504-.517 1.119-.923 1.806-1.182l.034-.011c.56-.219 1.411-.48 2.968-.55 1.688-.074 2.194-.093 6.464-.093 4.275 0 4.782.019 6.464.093 1.562.069 2.406.331 2.97.55.693.256 1.325.662 1.837 1.194.531.52.938 1.144 1.195 1.84.218.56.48 1.411.549 2.968.075 1.688.094 2.194.094 6.464 0 4.269-.019 4.768-.094 6.458z"/>
<path d="M16.059 7.782c-4.539.002-8.218 3.682-8.219 8.221v.002c0 4.541 3.681 8.222 8.222 8.222s8.222-3.681 8.222-8.222c0-4.541-3.681-8.222-8.222-8.222h-.002zm0 13.552c-2.945 0-5.332-2.388-5.332-5.333s2.388-5.333 5.333-5.333h.001c2.946 0 5.334 2.388 5.334 5.334s-2.388 5.334-5.334 5.334zM26.525 7.458c0 1.06-.86 1.92-1.92 1.92s-1.92-.86-1.92-1.92.86-1.92 1.92-1.92 1.92.86 1.92 1.92z"/>
</symbol>
<symbol id="icon-linkedin" viewBox="0 0 32 32">
<path d="M31.992 32H32V20.262c0-5.741-1.237-10.163-7.947-10.163-3.227 0-5.392 1.77-6.277 3.45h-.093v-2.914h-6.365v21.363h6.627V21.42c0-2.786.528-5.48 3.978-5.48 3.398 0 3.448 3.179 3.448 5.658V32h6.621zM.528 10.635h6.635V32H.528V10.635zM3.843 0C1.72 0 0 1.721 0 3.843c0 2.12 1.722 3.878 3.843 3.878 2.12 0 3.842-1.757 3.842-3.878S5.965.002 3.844 0z"/>
</symbol>
<symbol id="icon-logo-1" viewBox="0 0 29 32">
<path d="M3.84 0l4.677 4.428h13.046v12.351l4.677 4.428V.001H3.84z"/>
<path d="M0 4.241v20.6h21.76v-8.188L8.655 4.247 0 4.242zm17.615 17.587H3.443V7.974h1.002V20.89h13.17v.938zM6.266 28.662l.523-1.078h.438l-.763 1.438v.837h-.397v-.837l-.764-1.438h.439l.523 1.078zm2.247.667h-.881l-.184.53h-.411l.859-2.275h.355l.861 2.275H8.7l-.186-.53zm-.77-.319h.659l-.33-.944-.33.944zm2.328.234c0-.105.029-.202.086-.289.057-.089.17-.193.339-.314-.088-.111-.151-.206-.186-.284s-.052-.154-.052-.227c0-.178.054-.319.162-.422s.254-.156.438-.156c.166 0 .301.049.406.147.106.097.159.217.159.361 0 .095-.024.182-.072.262-.048.079-.127.158-.236.238l-.155.113.439.519c.064-.125.095-.264.095-.417h.33c0 .28-.066.51-.197.689l.334.395h-.441l-.128-.152c-.162.122-.356.183-.581.183s-.405-.059-.541-.178c-.134-.12-.202-.276-.202-.467zm.753.343c.128 0 .248-.043.359-.128l-.497-.586-.048.034c-.125.095-.188.203-.188.325 0 .105.034.191.102.256s.158.098.272.098zm-.209-1.466c0 .087.054.197.161.33l.173-.119.048-.039c.065-.057.097-.131.097-.22 0-.059-.022-.11-.067-.152-.045-.043-.102-.064-.17-.064-.074 0-.133.025-.177.075s-.066.113-.066.189zm4.133.997c-.023.243-.113.432-.269.569-.156.135-.364.203-.623.203-.181 0-.341-.043-.48-.128-.137-.086-.244-.209-.319-.367s-.114-.342-.117-.552v-.212c0-.215.038-.404.114-.567s.185-.29.327-.378c.143-.088.307-.133.494-.133.251 0 .453.068.606.205s.242.329.267.578h-.394c-.019-.164-.067-.281-.144-.353-.076-.073-.188-.109-.336-.109-.172 0-.304.063-.397.189-.092.125-.139.309-.141.552v.202c0 .246.044.433.131.563s.218.194.387.194c.155 0 .272-.035.35-.105s.128-.186.148-.348h.394zm2.17-.338c0 .223-.039.419-.116.588-.077.168-.188.297-.331.388-.143.09-.307.134-.494.134-.184 0-.349-.045-.494-.134-.144-.091-.255-.219-.334-.386-.078-.167-.118-.359-.119-.576v-.128c0-.222.039-.418.117-.588.079-.17.19-.299.333-.389.144-.091.308-.136.494-.136s.349.045.492.134c.144.088.255.217.333.384s.118.361.119.583v.127zm-.395-.118c0-.252-.048-.445-.144-.58-.095-.134-.23-.202-.405-.202-.171 0-.305.067-.402.202-.096.133-.145.322-.147.567v.131c0 .25.048.443.145.58s.233.205.406.205c.175 0 .309-.067.403-.2.095-.133.142-.328.142-.584v-.119z"/>
</symbol>
<symbol id="icon-logo-2" viewBox="0 0 25 32">
<path d="M10.447 1.806h.084c.156 0 .324.016.49.03.807.058 1.552.175 2.274.348l-.095-.019V.403c-.652-.172-1.42-.299-2.207-.356l-.042-.002c-.288-.022-.595-.036-.909-.044h-.263C8.172.007 6.618.219 5.136.612l.128-.029c-1.68.419-3.293 1.075-4.79 1.948v17.475c1.442-.783 2.976-1.381 4.566-1.779 1.123-.3 2.434-.51 3.78-.586l.052-.002h.051c.216-.011.433-.017.655-.019v-1.79c-1.78.024-3.493.264-5.129.695l.147-.033c-.602.157-1.185.325-1.731.513l-.623.211V3.591l.266-.128C4.54 2.5 6.737 1.939 8.979 1.812c.008-.001.018-.001.028-.001s.02 0 .029.001h-.001c.248-.013.497-.019.741-.019h.28c.129.003.258.006.388.014z"/>
<path d="M14.837 3.651c-.409 0-.814-.014-1.205-.044-.467-.034-.947-.091-1.401-.167-.277-.047-.55-.103-.814-.164v17.275c.995.257 2.137.404 3.314.404h.117-.006c1.607-.007 3.162-.218 4.643-.609l-.128.029c1.68-.42 3.294-1.075 4.792-1.948V1.264a19.5796 19.5796 0 01-4.564 1.781c-1.423.381-3.057.602-4.743.609h-.004zm6.908.299l.623-.21v13.63l-.266.128c-.903.442-1.962.834-3.065 1.118l-.119.026c-1.331.344-2.7.522-4.074.527-.411 0-.819-.017-1.214-.052l-.427-.038V5.062l.497.033c.361.023.735.034 1.141.034 1.841-.007 3.622-.248 5.32-.697l-.147.033c.581-.153 1.158-.325 1.731-.518zM1.684 25.977c-.087-.091-.193-.163-.311-.212l-.006-.002c-.101-.042-.219-.067-.343-.067-.012 0-.023 0-.035.001h.002-.014c-.139 0-.272.028-.393.078l.007-.003c-.121.049-.225.119-.311.205-.086.087-.154.191-.199.307l-.002.006c-.045.111-.072.24-.072.375v.012-.001 2.335c0 .011-.001.024-.001.037 0 .16.034.312.095.449l-.003-.007c.058.123.136.227.232.312l.001.001c.089.076.197.133.315.165l.006.001c.114.032.231.048.349.049.13.001.259-.027.377-.081.121-.054.225-.127.311-.216.084-.088.153-.192.201-.306l.002-.007c.047-.109.075-.235.075-.368v-.266h-.61v.222c0 .07-.013.137-.037.198l.001-.004c-.021.052-.051.095-.089.131-.036.029-.079.052-.125.067l-.003.001c-.038.013-.082.021-.127.022-.011.001-.023.002-.036.002-.045 0-.088-.01-.126-.027l.002.001c-.051-.023-.094-.057-.126-.1l-.001-.001c-.051-.082-.081-.182-.081-.289 0-.008 0-.017.001-.025v.001-2.177-.023c0-.119.028-.23.077-.33l-.002.004c.032-.049.076-.088.127-.113l.002-.001c.039-.019.084-.03.132-.03.013 0 .026.001.039.002H.983h.011c.051 0 .1.012.143.033l-.002-.001c.048.024.089.057.119.099l.001.001c.063.082.101.187.101.301v.013-.001.202h.604v-.238-.01c0-.143-.027-.28-.077-.406l.003.007c-.048-.128-.117-.237-.204-.329zm3.626-.027c-.195-.164-.44-.255-.694-.257-.131.001-.256.025-.372.068l.007-.002c-.124.045-.231.11-.323.192l.001-.001c-.099.09-.179.198-.234.321l-.002.006c-.056.127-.089.275-.089.431v.022-.001 2.239c-.004.158.026.314.089.459.055.12.136.227.237.313.09.084.197.151.316.195l.007.002c.117.043.24.065.364.066.131 0 .256-.024.372-.068l-.007.002c.127-.047.237-.114.331-.198l-.001.001c.096-.086.173-.19.228-.307l.002-.006c.056-.127.089-.274.089-.43v-.03.002-2.239-.021c0-.156-.033-.304-.092-.438l.003.007c-.057-.128-.135-.236-.23-.327zm-.285 3.019c.001.01.002.022.002.035 0 .051-.009.099-.027.144l.001-.003c-.022.058-.055.108-.097.148-.077.065-.178.105-.287.105-.11 0-.21-.04-.288-.105l.001.001c-.042-.041-.075-.09-.096-.145l-.001-.003a.39745.39745 0 01-.026-.141c0-.012.001-.024.002-.036v.002-2.239a.34912.34912 0 01-.002-.035c0-.051.009-.099.027-.144l-.001.003c.022-.058.055-.108.097-.148.077-.065.178-.105.287-.105.11 0 .21.04.288.105l-.001-.001c.042.041.075.09.096.145l.001.003c.016.042.026.09.026.141 0 .012-.001.024-.002.036v-.002 2.239zm5.047 1V25.73h-.587l-.771 2.244h-.011l-.777-2.244h-.581v4.239h.606V27.39h.011l.593 1.823h.302l.598-1.823h.011v2.579h.606zm3.441-3.942c-.091-.102-.206-.182-.337-.23l-.006-.002c-.124-.042-.267-.066-.416-.066h-.024.001-.9v4.239h.604v-1.656h.311c.188.009.376-.031.545-.116.137-.076.252-.188.332-.324.07-.113.117-.238.139-.369.024-.16.035-.321.033-.482.001-.021.001-.045.001-.07 0-.19-.022-.375-.063-.552l.003.016c-.043-.153-.12-.284-.223-.39zm-.312 1.292c-.003.081-.023.156-.057.224l.001-.003c-.035.065-.089.116-.154.148l-.002.001c-.089.04-.187.058-.285.053h-.276v-1.441h.311c.008 0 .018-.001.028-.001.089 0 .173.02.248.055l-.004-.002c.062.036.112.091.142.157.033.074.051.155.053.236v.282c0 .099.006.2 0 .291H13.2zm3.173-1.589h-.495l-.934 4.239h.604l.177-.911h.824l.177.911h.604l-.957-4.239zm-.557 2.751l.297-1.537h.011l.296 1.537h-.604zm4.46-.197h-.011l-.912-2.554h-.581v4.239h.604V27.42h.012l.923 2.549h.568V25.73h-.604v2.554zm3.691-2.554l-.486 1.685h-.012l-.486-1.685h-.64l.83 2.447v1.792h.604v-1.792l.83-2.447h-.64zM0 31.166h.291v.817h.198v-.817h.29v-.167H.001v.167zm2.447-.168l-.381.984h.21l.081-.224h.392l.084.224h.215l-.391-.984h-.21zm-.031.595l.134-.365.134.365h-.268zm2.45.027h.227v.127c-.063.051-.145.082-.233.083h-.014c-.037 0-.072-.008-.103-.023l.002.001c-.037-.017-.068-.042-.093-.072-.046-.066-.074-.147-.074-.235 0-.008 0-.015.001-.023v.001c0-.219.095-.329.283-.329.006-.001.013-.001.021-.001.045 0 .086.014.12.038h-.001c.04.029.07.07.082.118v.001l.195-.038c-.042-.192-.181-.289-.417-.289-.127-.003-.25.042-.344.127-.048.048-.087.106-.111.17l-.001.003a.4794.4794 0 00-.031.169c0 .013 0 .025.001.038v-.002c-.006.135.039.267.126.369.047.048.104.087.168.112l.003.001c.051.02.11.032.171.032.011 0 .022 0 .033-.001h-.001c.154.004.304-.052.417-.157v-.388h-.427v.166zm2.471-.622h-.199v.984h.69v-.167h-.49v-.817zm2.089 0h-.199v.984h.199v-.984zm2.043.658l-.403-.657h-.193v.984h.185v-.643l.395.643h.198v-.984h-.182v.657zm1.846-.107h.49v-.167h-.49v-.216h.528v-.167h-.727v.984h.747v-.167h-.548v-.266zm4.477-.162h-.388v-.388h-.198v.984h.198v-.43h.388v.43h.198v-.984h-.198v.388zm1.857.162h.492v-.167h-.492v-.216h.529v-.167h-.727v.984h.746v-.167h-.548v-.266zm2.519 0c.171-.027.258-.117.258-.274.001-.008.002-.018.002-.028 0-.034-.007-.067-.021-.096l.001.002c-.018-.039-.044-.072-.077-.096h-.001c-.073-.037-.159-.059-.25-.059-.013 0-.027 0-.04.001h.002-.417v.984h.198v-.412h.039c.042-.003.084.005.123.022.029.018.053.043.07.072l.215.313h.237l-.12-.192c-.054-.096-.128-.175-.215-.235l-.002-.002zm-.199-.136h-.146v-.247h.156c.012-.001.027-.002.042-.002.057 0 .112.009.163.026l-.004-.001c.014.013.025.028.033.045v.001c.008.018.011.037.01.056-.001.02-.006.039-.016.056v-.001c-.009.017-.022.032-.037.043-.049.016-.106.025-.165.025-.013 0-.025 0-.038-.001h.002zm2.098.136h.49v-.167h-.49v-.216h.529v-.167h-.729v.984h.747v-.167h-.548v-.266z"/>
</symbol>
<symbol id="icon-logo-3" viewBox="0 0 31 32">
<path d="M4.722 31.103c.012 0 .023.003.033.007h-.001c.011.005.019.011.027.018l.153.161c-.119.13-.266.234-.431.305-.193.077-.401.115-.611.109-.197.004-.392-.031-.574-.102-.164-.065-.312-.164-.433-.288-.123-.129-.218-.28-.279-.445-.067-.184-.1-.377-.098-.571-.003-.195.033-.39.105-.573.067-.166.168-.317.297-.445.131-.126.287-.224.459-.29.189-.07.389-.104.591-.102.188-.004.375.027.549.093.152.063.291.15.412.257l-.128.171c-.009.012-.02.022-.032.031-.013.008-.028.013-.044.013h-.008c-.021-.001-.04-.008-.056-.018l-.069-.046-.096-.058c-.035-.019-.077-.038-.121-.054l-.007-.002c-.048-.017-.106-.033-.166-.044l-.008-.001c-.063-.012-.136-.018-.211-.018h-.018.001c-.146-.002-.29.024-.425.077-.126.048-.239.122-.333.215-.095.099-.169.216-.216.343-.054.145-.08.298-.078.452-.002.156.024.312.078.46.047.126.119.242.212.341.088.093.196.165.318.212.125.049.259.074.394.073.078.001.156-.004.234-.015.126-.015.247-.056.354-.122.054-.034.104-.072.151-.113.02-.018.046-.028.073-.029zm4.422-.807c.002.194-.033.386-.103.567-.062.165-.161.315-.288.44s-.282.224-.452.289c-.375.136-.789.136-1.164 0-.169-.066-.323-.165-.45-.29-.128-.128-.227-.279-.291-.445-.138-.367-.138-.769 0-1.136.065-.166.164-.317.291-.447.128-.121.281-.216.45-.279.374-.139.79-.139 1.164 0 .17.066.324.165.452.29.126.127.224.276.289.44.071.183.106.376.103.571zm-.402 0v-.025c0-.154-.027-.303-.076-.44l.003.009c-.043-.126-.113-.242-.205-.341-.09-.094-.2-.167-.323-.215-.272-.1-.574-.1-.846 0-.123.048-.234.121-.324.215-.093.098-.164.215-.207.341-.097.297-.097.615 0 .912.043.126.114.242.207.341.09.093.2.166.324.213.273.097.573.097.846 0 .123-.047.234-.12.323-.213.092-.099.162-.215.205-.341.051-.147.076-.301.073-.456zm3.419.478l.04.102c.015-.036.029-.069.044-.102.015-.034.031-.068.05-.1l.978-1.694c.019-.029.036-.047.056-.053s.043-.009.067-.009h.014-.001.289v2.755h-.343v-2.112c-.001-.014-.001-.031-.001-.047s.001-.033.001-.05v.002l-.984 1.718c-.012.026-.033.047-.058.063-.024.014-.052.023-.083.023h-.056c-.03 0-.059-.007-.084-.023s-.045-.037-.057-.063l-1.013-1.729v2.212h-.331v-2.75h.303c.024 0 .047.003.069.01h-.002c.024.011.043.03.054.053l.999 1.696c.018.028.035.06.048.094l.001.004zm3.681-.136v1.032h-.383v-2.752h.854c.161-.003.322.017.477.06.124.033.239.092.337.171.085.075.151.167.191.27.045.112.067.232.065.352.002.121-.022.24-.071.352-.046.106-.117.2-.207.275-.098.083-.214.145-.339.182-.129.041-.277.064-.431.064h-.031l-.462-.007zm0-.296H16.317c.102 0 .2-.015.292-.044l-.007.002a.6167.6167 0 00.214-.119c.058-.05.102-.113.13-.182.031-.074.047-.152.046-.232.001-.009.001-.019.001-.029 0-.07-.014-.137-.041-.198l.001.003a.52795.52795 0 00-.134-.188c-.146-.109-.33-.162-.515-.148h-.463v1.134zm5.145 1.331h-.302c-.03.001-.06-.008-.084-.026-.021-.017-.038-.038-.049-.063v-.001l-.26-.666h-1.307l-.27.666c-.01.024-.026.046-.048.062-.024.019-.055.028-.086.027h-.302l1.148-2.756h.398l1.164 2.756zm-1.895-1.023h1.08l-.456-1.122c-.03-.071-.06-.157-.083-.245l-.003-.013-.044.144c-.013.044-.029.084-.042.117l-.452 1.12zm3.549-1.719c.023.012.043.029.057.049l1.675 2.077v-2.139h.343v2.756h-.196c-.027 0-.052-.006-.074-.017h.001c-.024-.013-.044-.03-.061-.051l-1.673-2.075c.002.032.002.063 0 .095v2.048h-.343v-2.756H22.578c.023 0 .045.005.065.013h-.001zm4.896 1.646v1.094h-.383v-1.094l-1.059-1.66h.343c.029-.002.059.007.082.024.021.018.038.039.052.062l.662 1.071c.027.046.05.088.069.128s.034.078.048.117l.05-.119c.021-.049.043-.091.067-.13l-.002.004.653-1.078c.014-.022.031-.041.049-.058.023-.019.052-.029.082-.027h.346l-1.06 1.667zm-15.566-6.284c.167.02.335.036.505.051 2.583-1.101 4.768-2.902 6.282-5.18s2.29-4.929 2.231-7.624l-2.846-2.712c.579 2.869.308 5.836-.782 8.567s-2.956 5.12-5.389 6.898z"/>
<path d="M10.955 24.167l.077.015c2.6-1.772 4.583-4.247 5.691-7.104s1.292-5.965.526-8.922l-4.054-3.862c1.64 3.175 2.3 6.728 1.903 10.246s-1.833 6.857-4.143 9.628zm13.749-9.442c-.689 2.961-2.362 5.632-4.77 7.616-.703.582-1.462 1.101-2.266 1.55 1.961-.549 3.764-1.52 5.269-2.838s2.672-2.947 3.412-4.763l-1.644-1.565z"/>
<path d="M24.059 14.289l-2.341-2.23c-.045 2.543-.803 5.028-2.197 7.197s-3.372 3.943-5.729 5.137h.011c.554 0 1.1-.033 1.637-.096l-.065.006c2.203-.857 4.148-2.219 5.664-3.967s2.553-3.825 3.021-6.047zM11.294 2.664L8.501 0C6.004.919 3.857 2.535 2.34 4.636S.008 9.225 0 11.775c.009 2.818 1.005 5.552 2.829 7.77s4.372 3.793 7.242 4.476c2.561-2.973 4.061-6.647 4.281-10.488s-.851-7.648-3.058-10.869zm19.218 11.214c-.01-3.343-1.409-6.546-3.89-8.91s-5.843-3.696-9.352-3.706c-1.621-.002-3.229.283-4.741.841l17.099 16.291c.585-1.44.885-2.971.884-4.515z"/>
</symbol>
<symbol id="icon-logo-4" viewBox="0 0 60 32">
<path d="M9.229 9.548h-.002c-1.684 0-3.048 1.33-3.048 2.971v.002c0 1.641 1.365 2.971 3.048 2.971h.002c1.684 0 3.048-1.33 3.048-2.971v-.002c0-1.641-1.365-2.971-3.048-2.971zm22.501-.949c-.005-2.279-.936-4.463-2.589-6.074S25.247.006 22.908.001c-2.339.004-4.581.911-6.235 2.523S14.087 6.32 14.083 8.6v12.566S31.728 19.251 31.73 8.602V8.6zM0 25.289c.004 1.586.652 3.105 1.803 4.226s2.709 1.753 4.336 1.758c1.627-.005 3.185-.636 4.336-1.757s1.799-2.64 1.803-4.225v-8.744S0 17.881 0 25.289zm6.139 1.567c-.318 0-.629-.092-.893-.264s-.47-.417-.592-.703-.154-.601-.091-.905.215-.583.44-.802c.225-.219.511-.368.823-.429s.635-.029.929.089c.294.119.545.319.721.577s.271.561.271.87c.001.206-.04.411-.121.601s-.199.364-.348.51c-.149.146-.327.262-.522.341s-.405.12-.617.12v-.006zm12.532-.972h-1.256v1.297h-.654v-3.174h2.067v.53h-1.413v.82h1.256v.528zm3.144-.218c0 .312-.055.587-.166.822s-.269.417-.475.545c-.205.128-.44.192-.706.192-.263 0-.498-.063-.704-.19s-.366-.307-.48-.541c-.113-.235-.171-.506-.172-.811v-.157c0-.312.056-.587.168-.824.113-.238.273-.421.477-.547.206-.128.442-.192.706-.192s.499.064.704.192c.206.126.366.309.477.547.113.237.17.511.17.822v.142zm-.663-.144c0-.333-.06-.586-.179-.759s-.289-.259-.51-.259c-.219 0-.389.086-.508.257-.119.17-.18.42-.181.75v.155c0 .324.06.576.179.754s.291.268.515.268c.22 0 .388-.086.506-.257.118-.173.177-.424.179-.754v-.155zm2.784.826c0-.124-.044-.218-.131-.283-.087-.067-.244-.137-.471-.209-.227-.074-.406-.147-.539-.218-.36-.195-.541-.457-.541-.787 0-.172.048-.324.144-.458.097-.135.236-.241.416-.316.182-.076.385-.113.61-.113.227 0 .429.041.606.124.177.081.315.197.412.347.099.15.148.32.148.51h-.654c0-.145-.046-.258-.137-.338-.092-.081-.22-.122-.386-.122-.16 0-.284.034-.373.102-.089.067-.133.156-.133.266 0 .103.052.19.155.259.105.07.258.135.46.196.372.112.643.251.813.416s.255.372.255.619c0 .275-.104.491-.312.648-.208.156-.488.233-.839.233-.244 0-.467-.044-.667-.133-.201-.09-.354-.213-.46-.368-.105-.156-.157-.336-.157-.541h.656c0 .35.209.525.628.525.156 0 .277-.031.364-.094.087-.064.131-.153.131-.266zm3.491-1.812h-.972v2.645h-.654v-2.645h-.959v-.53h2.586v.53zm2.285 1.269h-1.256v.85h1.474v.525h-2.128v-3.174h2.124v.53h-1.469v.757h1.256v.512zm1.777.214h-.521v1.162h-.654v-3.174h1.18c.375 0 .664.084.868.251s.305.403.305.709c0 .217-.047.397-.142.543-.093.144-.235.259-.425.344l.687 1.297v.03h-.702l-.595-1.162zm-.522-.53h.528c.164 0 .291-.041.382-.124.09-.084.135-.2.135-.347 0-.15-.043-.267-.129-.353-.084-.086-.214-.129-.39-.129h-.525v.953zm3.964.574v1.118h-.654v-3.174h1.238c.238 0 .448.044.628.131.182.087.321.212.419.373.097.16.146.342.146.547 0 .311-.107.557-.321.737-.212.179-.507.268-.883.268h-.573zm0-.53h.584c.173 0 .305-.041.395-.122.092-.081.137-.198.137-.349 0-.156-.046-.281-.137-.377s-.218-.145-.379-.148h-.6v.996zm4.138.272h-1.256v.85h1.474v.525h-2.128v-3.174h2.124v.53h-1.469v.757h1.256v.512zm3.035-1.269h-.972v2.645h-.654v-2.645h-.959v-.53h2.586v.53zm2.285 1.269h-1.256v.85h1.474v.525h-2.128v-3.174h2.124v.53h-1.469v.757h1.256v.512zm1.777.214h-.521v1.162h-.654v-3.174h1.179c.375 0 .664.084.868.251s.305.403.305.709c0 .217-.047.397-.142.543-.093.144-.235.259-.425.344l.687 1.297v.03h-.702l-.595-1.162zm-.521-.53h.528c.164 0 .291-.041.382-.124.09-.084.135-.2.135-.347 0-.15-.043-.267-.129-.353-.084-.086-.214-.129-.39-.129h-.525v.953zm3.844.859c0-.124-.044-.218-.131-.283-.087-.067-.244-.137-.471-.209-.227-.074-.406-.147-.538-.218-.36-.195-.541-.457-.541-.787 0-.172.048-.324.144-.458.097-.135.236-.241.416-.316.182-.076.385-.113.61-.113.227 0 .429.041.606.124.177.081.315.197.412.347.099.15.148.32.148.51h-.654c0-.145-.046-.258-.137-.338-.092-.081-.22-.122-.386-.122-.16 0-.284.034-.373.102-.089.067-.133.156-.133.266 0 .103.052.19.155.259.105.07.258.135.46.196.372.112.643.251.813.416s.255.372.255.619c0 .275-.104.491-.312.648-.208.156-.488.233-.839.233-.244 0-.467-.044-.667-.133-.201-.09-.354-.213-.46-.368-.105-.156-.157-.336-.157-.541h.656c0 .35.209.525.628.525.156 0 .277-.031.364-.094.087-.064.131-.153.131-.266z"/>
</symbol>
<symbol id="icon-logo-5" viewBox="0 0 40 32">
<path d="M3.055 26.742c.156.194.24.438.236.688.001.016.001.035.001.054 0 .153-.031.298-.088.43l.003-.007c-.066.155-.161.286-.28.392l-.001.001c-.304.231-.681.343-1.061.317H0v-4.361h1.827c.361-.024.718.078 1.012.29.118.099.211.224.273.366s.089.296.081.45c.011.241-.065.477-.212.667-.142.173-.338.293-.556.341.247.045.471.177.63.373zm-2.187-.658h.781c.016.001.035.002.055.002.167 0 .32-.055.444-.148l-.002.001c.057-.052.103-.117.132-.19l.001-.003c.023-.056.036-.122.036-.19 0-.015-.001-.03-.002-.044v.002c.001-.011.001-.024.001-.037 0-.07-.013-.137-.038-.198l.001.004c-.03-.076-.074-.141-.13-.194a.75038.75038 0 00-.511-.147H.868v1.144zm1.354 1.672c.062-.054.11-.121.143-.196l.001-.004c.026-.062.042-.133.042-.209 0-.012 0-.024-.001-.036v.002c.001-.009.001-.02.001-.031 0-.077-.016-.151-.045-.218l.001.004c-.034-.08-.084-.147-.146-.201l-.001-.001c-.132-.099-.299-.159-.48-.159-.018 0-.035.001-.053.002h.002-.819v1.199h.83c.014.001.031.001.047.001.179 0 .344-.057.479-.154l-.002.002zm4.568.861l-1.016-1.704h-.382v1.704h-.874v-4.361h1.655c.417-.029.83.104 1.152.371.231.237.371.549.393.879s-.073.659-.27.925c-.204.235-.483.391-.789.443l1.082 1.743H6.79zm-1.398-2.299h.715c.497 0 .745-.22.745-.66.001-.011.001-.024.001-.037 0-.082-.015-.16-.043-.232l.002.004c-.033-.088-.082-.163-.143-.226-.133-.112-.306-.18-.495-.18-.024 0-.047.001-.07.003h.003-.724l.008 1.327zm6.176 1.421H9.826l-.308.878h-.917l1.6-4.312h.991l1.593 4.312h-.917l-.301-.878zm-.233-.66l-.637-1.841-.637 1.841h1.273zm6.215 1.538h-.868l-1.946-2.965v2.965h-.866v-4.361h.866l1.946 2.983v-2.983h.868v4.361zm4.952-1.044c-.179.329-.453.597-.785.769-.335.174-.732.276-1.153.276-.024 0-.047 0-.07-.001h.003-1.545v-4.361h1.545c.02-.001.044-.001.068-.001.42 0 .816.099 1.167.276l-.015-.007c.332.168.606.433.785.761.179.355.272.747.272 1.144s-.093.789-.272 1.144zm-.993-.104c.248-.29.384-.659.384-1.041s-.136-.751-.384-1.041c-.299-.262-.69-.396-1.086-.371h-.603v2.823h.603c.397.025.787-.108 1.086-.371zM12.111 0s11.201 4.246 10.963 10.39v10.392S11.881 16.534 12.115 10.39L12.111 0zm20.943 18.349c2.115-1.462 4.562-2.367 7.117-2.633v-3.253c-2.943 1.139-5.44 3.204-7.117 5.886z"/>
<path d="M31.783 19.329c1.731-3.5 4.733-6.202 8.388-7.548V2.407S24.219 8.455 24.557 17.204v14.795s.711-.27 1.829-.778c0-.473 0-.95.051-1.43.33-4.062 2.253-7.826 5.347-10.464z"/>
<path d="M30.266 24.825c.093-1.118.291-2.149.586-3.138l-.028.108c-1.926 2.279-3.093 5.106-3.335 8.085-.023.281-.036.562-.042.852.906-.437 1.96-.982 3.068-1.623-.191-.909-.3-1.953-.3-3.022 0-.444.019-.884.056-1.318l-.004.057zm.634.053c-.031.359-.049.778-.049 1.2 0 .947.09 1.874.261 2.771l-.015-.092c4.358-2.618 9.255-6.664 9.067-11.553v-.426c-3.114.35-6.027 1.716-8.292 3.89-.501 1.234-.847 2.664-.968 4.157l-.003.052z"/>
</symbol>
<symbol id="icon-logo-6" viewBox="0 0 62 32">
<path d="M31.124 14.854c-.291-.424-.43-.926-.397-1.431v-2.075c0-.636.132-1.119.395-1.45s.715-.495 1.356-.494c.602 0 1.029.141 1.282.422.276.359.41.798.379 1.241v.488h-1.077v-.494c.001-.019.001-.042.001-.065 0-.148-.012-.293-.034-.434l.002.016c-.016-.109-.07-.211-.154-.287-.111-.082-.25-.122-.39-.112-.148-.01-.294.032-.41.118-.094.085-.156.196-.178.317-.027.142-.043.305-.043.472v.043-.002 2.518c-.017.243.031.486.138.707.054.075.128.134.215.171s.183.051.278.04c.138.011.275-.03.381-.114.088-.082.144-.19.161-.306.025-.167.036-.336.033-.505v-.511h1.077v.466c.03.462-.101.92-.372 1.304-.247.308-.669.462-1.289.462s-1.088-.165-1.353-.507zm4.483.022c-.272-.323-.408-.794-.408-1.416v-2.182c0-.616.136-1.083.408-1.399s.727-.474 1.364-.473c.633 0 1.086.158 1.358.473.272.317.41.783.41 1.399v2.182c0 .616-.138 1.089-.415 1.414s-.727.488-1.353.488-1.09-.165-1.364-.485zm1.867-.524c.097-.202.142-.424.129-.646v-2.672c.013-.218-.031-.435-.127-.633-.055-.076-.131-.137-.22-.174s-.187-.05-.284-.037c-.097-.013-.195 0-.285.037s-.166.097-.221.174c-.098.198-.142.415-.129.633v2.685c-.014.222.031.444.129.646.063.068.14.123.227.16s.181.057.277.057c.096 0 .19-.019.277-.057s.164-.092.227-.16v-.013zm2.561-4.884h1.159l.872 4.027.892-4.027h1.128l.114 5.812h-.834l-.089-4.04-.861 4.04h-.669l-.892-4.054-.082 4.054h-.843l.105-5.812zm5.465 0h1.806c1.04 0 1.561.55 1.561 1.65 0 1.054-.548 1.58-1.643 1.579h-.615v2.583h-1.115l.007-5.812zm1.542 2.484c.11.013.222.004.328-.028s.203-.085.285-.156c.128-.196.184-.427.16-.656.001-.019.001-.042.001-.065 0-.164-.02-.323-.057-.476l.003.014c-.016-.058-.044-.112-.082-.159s-.086-.087-.141-.117c-.155-.07-.326-.102-.497-.093h-.432v1.737h.432zm3.432-2.484h1.197l1.228 5.812H51.86l-.243-1.34h-1.068l-.25 1.34h-1.055l1.228-5.812zm1.023 3.799l-.417-2.44-.417 2.44h.834zm2.395-3.799h.78l1.494 3.316V9.468h.925v5.812h-.742l-1.503-3.461v3.461h-.957l.002-5.812zm5.366 3.596l-1.242-3.588h1.046l.758 2.305.711-2.305h1.023l-1.226 3.588v2.216h-1.07v-2.216zm-26.413 4.758v.304h-.91v2.362h-.381v-2.362h-.914v-.304h2.205zm2.852 2.666h-.294c-.03.002-.059-.007-.083-.025-.022-.015-.039-.037-.049-.061l-.263-.633h-1.262l-.263.633c-.007.026-.021.051-.04.072-.023.018-.053.027-.083.025h-.294l1.115-2.666h.388l1.128 2.655zm-1.847-.99h1.052l-.446-1.085c-.028-.067-.056-.151-.079-.237l-.003-.014c-.016.051-.029.099-.042.141l-.04.112-.441 1.083zm3.768.728c.07.003.14.003.21 0 .06-.006.12-.016.178-.032.055-.013.108-.029.16-.049.049-.019.098-.042.149-.065v-.599h-.451c-.01 0-.02-.002-.028-.005h.001c-.011-.004-.02-.009-.028-.017-.007-.006-.013-.013-.017-.022a.06436.06436 0 01-.005-.024v-.207h.865v1.022c-.064.044-.137.086-.213.122l-.01.004c-.069.033-.151.064-.237.088l-.011.003c-.079.023-.173.042-.27.054l-.009.001c-.097.011-.209.017-.323.017h-.002c-.192.002-.383-.032-.562-.099-.167-.064-.319-.158-.446-.279-.124-.122-.222-.265-.288-.422-.07-.177-.105-.364-.103-.553-.002-.19.032-.379.1-.557.064-.158.162-.302.288-.422.127-.12.279-.214.446-.277.191-.068.394-.102.597-.099.104 0 .207.008.31.023.091.014.179.037.265.068.078.028.153.063.223.106.068.042.133.088.194.139l-.107.165c-.008.015-.021.028-.036.037s-.033.014-.051.014a.14741.14741 0 01-.07-.021h.001c-.033-.017-.069-.038-.109-.063-.047-.028-.097-.052-.149-.072-.057-.023-.126-.043-.197-.058l-.008-.001c-.081-.015-.174-.023-.269-.023h-.014.001c-.147-.002-.293.023-.43.074-.124.047-.236.119-.328.211-.092.096-.163.209-.207.331-.1.289-.1.6 0 .889.049.125.125.24.223.336.091.091.202.163.325.211.142.046.292.064.441.053zm3.554-.042h1.217v.304h-1.59v-2.666h.381l-.009 2.362zm2.484.304h-.381v-2.666h.381v2.666zm1.418-2.654c.023.012.042.029.058.048l1.63 2.009c-.001-.014-.002-.031-.002-.047s.001-.033.002-.05v.002-1.986h.332v2.676H46.889c-.025 0-.049-.006-.071-.016h.001c-.023-.014-.043-.03-.06-.05l-1.628-2.007v2.073h-.319V17.82h.198c.023 0 .044.005.063.013h-.001zm4.827-.012v.293H48.55v.88h1.095v.283H48.55v.91h1.351v.293h-1.743v-2.659h1.743zM9.95 1.359L26.879 5.91v15.946L9.95 17.308V1.36zM8.864 0v18.082l19.098 5.135V5.137L8.864 0z"/>
<path d="M19.1 31.611L0 26.472V8.392l19.1 5.137v18.082z"/>
<path d="M9.181 1.155l16.708 4.493-7.105 6.729-16.71-4.496 7.108-6.726zM8.864 0L0 8.392l19.1 5.137 8.862-8.392L8.864 0zm11.311 30.593l7.788-7.374-7.788-2.096v9.47z"/>
</symbol>
<symbol id="icon-smartphone" viewBox="0 0 20 32">
<path d="M17 0H3C1.346 0 0 1.346 0 3v26c0 1.654 1.346 3 3 3h14c1.654 0 3-1.346 3-3V3c0-1.654-1.346-3-3-3zM3 2h14c.552 0 1 .448 1 1v21H2V3c0-.552.448-1 1-1zm14 28H3c-.552 0-1-.448-1-1v-3h16v3c0 .552-.448 1-1 1z"/>
<path d="M4.707 27.478c.391.365.391.956 0 1.321s-1.024.365-1.414 0c-.391-.365-.391-.956 0-1.321s1.024-.365 1.414 0z"/>
</symbol>
<symbol id="icon-twitter" viewBox="0 0 32 32">
<path d="M32 6.078c-1.1.493-2.376.857-3.713 1.028l-.068.007c1.36-.817 2.382-2.078 2.873-3.579l.013-.046c-1.197.722-2.591 1.273-4.076 1.573l-.084.014c-1.2-1.279-2.9-2.076-4.787-2.076-3.622 0-6.558 2.936-6.558 6.558v.004c0 .52.043 1.021.152 1.496-5.454-.266-10.28-2.88-13.522-6.861-.564.949-.899 2.092-.902 3.313v.001c0 2.272 1.171 4.286 2.914 5.451-1.091-.03-2.107-.325-2.994-.823l.033.017v.072c.003 3.165 2.236 5.807 5.213 6.44l.043.008c-.499.136-1.071.215-1.662.215h-.061.003c-.419 0-.843-.024-1.242-.112.85 2.598 3.261 4.509 6.13 4.57-2.215 1.746-5.045 2.8-8.122 2.8H1.57h.001-.062c-.531 0-1.055-.034-1.569-.099l.061.006c2.826 1.846 6.287 2.944 10.004 2.944h.063-.003c12.072 0 18.672-10 18.672-18.669 0-.288-.01-.57-.024-.848 1.299-.936 2.39-2.064 3.258-3.355l.03-.047z"/>
</symbol>
<symbol id="icon-email" viewBox="0 0 32 32">
<path d="M26.667 5.333h-21.333c-1.467 0-2.653 1.2-2.653 2.667l-0.013 16c0 1.467 1.2 2.667 2.667 2.667h21.333c1.467 0 2.667-1.2 2.667-2.667v-16c0-1.467-1.2-2.667-2.667-2.667zM26.133 11l-9.427 5.893c-0.427 0.267-0.987 0.267-1.413 0l-9.427-5.893c-0.333-0.213-0.533-0.573-0.533-0.96 0-0.893 0.973-1.427 1.733-0.96l8.933 5.587 8.933-5.587c0.76-0.467 1.733 0.067 1.733 0.96 0 0.387-0.2 0.747-0.533 0.96z"></path>
</symbol>
<symbol id="icon-send" viewBox="0 0 32 32">
<path d="M32 0l-32 18 10.227 3.788 15.773-14.788-11.998 16.186 0.010 0.004-0.012-0.004v8.814l5.735-6.691 7.265 2.691 5-28z"></path>
</symbol>
<symbol id="icon-phone" viewBox="0 0 32 32">
<path d="M24.882 19.773l-3.268-0.373c-0.785-0.090-1.557 0.18-2.11 0.733l-2.367 2.367c-3.641-1.853-6.626-4.825-8.478-8.478l2.38-2.38c0.553-0.553 0.823-1.325 0.733-2.11l-0.373-3.242c-0.154-1.299-1.248-2.277-2.56-2.277h-2.226c-1.454 0-2.663 1.209-2.573 2.663 0.682 10.987 9.469 19.761 20.443 20.443 1.454 0.090 2.663-1.119 2.663-2.573v-2.226c0.013-1.299-0.965-2.393-2.264-2.547z"></path>
</symbol>
<symbol id="icon-man" viewBox="0 0 32 32">
<path d="M16 16c4.42 0 8-3.58 8-8s-3.58-8-8-8c-4.42 0-8 3.58-8 8s3.58 8 8 8zM16 20c-5.34 0-16 2.68-16 8v2c0 1.1 0.9 2 2 2h28c1.1 0 2-0.9 2-2v-2c0-5.32-10.66-8-16-8z"></path>
</symbol>
<symbol id="icon-close" viewBox="0 0 32 32">
<path d="M26.667 9.081l-1.97-1.97-7.808 7.808-7.808-7.808-1.97 1.97 7.808 7.808-7.808 7.808 1.97 1.97 7.808-7.808 7.808 7.808 1.97-1.97-7.808-7.808 7.808-7.808z"></path>
</symbol>
<symbol id="icon-open-menu" viewBox="0 0 32 32">
<path d="M23.733 10.304l-1.504-1.504-5.963 5.963-5.963-5.963-1.504 1.504 5.963 5.963-5.963 5.963 1.504 1.504 5.963-5.963 5.963 5.963 1.504-1.504-5.963-5.963 5.963-5.963z"></path>
</symbol>
<symbol id="icon-close-menu" viewBox="0 0 32 32">
<path d="M6.4 11.733v-2.133h19.2v2.133h-19.2zM6.4 17.067h19.2v-2.133h-19.2v2.133zM6.4 22.4h19.2v-2.133h-19.2v2.133z"></path>
</symbol>
</defs>
</svg>